<svg width="423" height="381" viewBox="0 0 423 381" fill="none" xmlns="http://www.w3.org/2000/svg">
<path fill-rule="evenodd" clip-rule="evenodd" d="M240.802 -65.7904C217.197 -32.8481 203.302 7.52463 203.302 51.1427C203.302 83.0083 210.732 113.187 223.965 139.996L191.304 239.575C189.005 246.586 190.87 254.294 196.121 259.478C201.372 264.661 209.103 266.427 216.084 264.038L313.732 230.611C340.96 244.372 371.739 252.12 404.279 252.12C472.284 252.12 532.401 218.343 568.768 166.65C537.288 304.123 450.354 418.55 334.549 481.703C156.7 416.279 29 236.822 29 25.69C29 10.7176 29.6422 -4.09554 30.8989 -18.72C90.3359 -49.0242 156.941 -66 227.279 -66C231.803 -66 236.311 -65.9298 240.802 -65.7904ZM287.967 -61.7327C259.64 -32.5493 242.201 7.2601 242.201 51.1427C242.201 79.3719 249.401 105.861 262.05 128.933C264.637 133.652 265.153 139.231 263.476 144.345L240.438 214.586L309.126 191.073C314.369 189.278 320.128 189.805 324.958 192.522C348.388 205.698 375.425 213.221 404.279 213.221C480.436 213.221 544.325 160.695 561.695 89.8946C491.58 8.96152 395.75 -46.4526 287.967 -61.7327Z" fill="#170B42"/>
</svg>
