<svg width="241" height="259" viewBox="0 0 241 259" fill="none" xmlns="http://www.w3.org/2000/svg">
    <path fill-rule="evenodd" clip-rule="evenodd" d="M141.154 -86.6337C132.306 -67.6851 127.363 -46.5364 127.363 -24.2296C127.363 -0.874466 132.792 21.2442 142.461 40.8933L118.596 113.877C116.916 119.016 118.279 124.665 122.116 128.464C125.953 132.263 131.602 133.558 136.703 131.806L208.055 107.307C227.95 117.393 250.441 123.071 274.217 123.071C326.594 123.071 372.567 95.5679 398.564 54.1739C380.019 157.787 313.687 244.766 223.266 291.339C93.3109 246.187 0 122.336 0 -23.3751C0 -33.7082 0.469251 -43.9313 1.38755 -54.0243C43.7666 -74.432 91.1327 -86.0814 141.154 -86.6337ZM172.734 -85.499C161.976 -67.6097 155.786 -46.6446 155.786 -24.2296C155.786 -3.5397 161.048 15.8749 170.29 32.785C172.181 36.2434 172.558 40.3329 171.333 44.0805L154.498 95.5622L204.689 78.3289C208.52 77.0135 212.728 77.3998 216.258 79.3908C233.378 89.0481 253.134 94.5615 274.217 94.5615C325.245 94.5615 368.735 62.192 385.392 16.8076C330.912 -40.6113 256.207 -78.5444 172.734 -85.499Z" fill="#170B42"/>
</svg>
