<svg width="63" height="62" viewBox="0 0 63 62" fill="none" xmlns="http://www.w3.org/2000/svg">
<path fill-rule="evenodd" clip-rule="evenodd" d="M30.3412 0C28.6876 3.53065 27.7637 7.47126 27.7637 11.6277C27.7637 15.9794 28.7783 20.1007 30.5855 23.7618L26.1252 37.3607C25.8112 38.3181 26.066 39.3708 26.783 40.0787C27.5001 40.7866 28.5559 41.0277 29.5092 40.7014L42.8445 36.1365C46.1971 37.831 49.944 38.8578 53.9059 39.0434C48.4494 48.5684 40.5395 56.5079 31.0378 62.0004C12.4996 51.2843 0.0208053 31.2534 0 8.30616C8.94163 3.12992 19.295 0.121574 30.3412 0ZM36.2433 0.211423C34.2326 3.54471 33.0758 7.4511 33.0758 11.6277C33.0758 15.4828 34.0591 19.1002 35.7865 22.251C36.1398 22.8954 36.2103 23.6574 35.9813 24.3557L32.8351 33.9481L42.2153 30.7371C42.9314 30.492 43.7179 30.564 44.3775 30.935C47.5771 32.7344 51.2695 33.7617 55.2098 33.7617C55.6849 33.7617 56.1564 33.7467 56.624 33.7172C60.1192 25.9631 62.0675 17.3615 62.0756 8.30583C54.3617 3.84038 45.597 0.988388 36.2433 0.211423Z" fill="#E359EF"/>
</svg>
